<svg xmlns="http://www.w3.org/2000/svg" xmlns:xlink="http://www.w3.org/1999/xlink" version="1.1" x="0px" y="0px" viewBox="0 0 96 120" enable-background="new 0 0 96 96" xml:space="preserve"><g><path d="M79.017,45.436v-0.499c0-17.172-13.971-31.142-31.143-31.142c-17.169,0-31.138,13.97-31.138,31.142v0.59   c-6.148,2.367-10.16,8.039-10.5,14.886c-0.381,7.72,5.337,13.201,11.173,15.208l1.326,0.457V44.937   c0-16.069,13.071-29.142,29.138-29.142c16.07,0,29.143,13.073,29.143,29.142v31.189l1.3-0.411   c6.691-2.115,11.077-7.957,11.447-15.244C90.143,52.99,84.692,47.574,79.017,45.436z M16.735,73.205   c-4.266-1.923-8.82-6.26-8.5-12.694c0.29-5.856,3.45-10.601,8.5-12.833V73.205z M87.768,60.369   c-0.301,5.894-3.631,10.795-8.751,12.961V47.583C83.404,49.479,88.099,53.83,87.768,60.369z"/><path d="M63.601,56.65L40.268,44.984c-0.303-0.152-0.677-0.138-0.974,0.044c-0.296,0.185-0.473,0.503-0.473,0.85V69.21   c0,0.348,0.177,0.665,0.473,0.851c0.158,0.098,0.34,0.149,0.527,0.149c0.152,0,0.301-0.034,0.448-0.105l23.333-11.667   c0.34-0.171,0.551-0.513,0.551-0.894C64.153,57.168,63.936,56.817,63.601,56.65z M40.82,67.592V47.496l20.097,10.048L40.82,67.592z   "/><path d="M48,32.884c-13.598,0-24.66,11.063-24.66,24.66S34.403,82.204,48,82.204c13.598,0,24.661-11.063,24.661-24.66   S61.599,32.884,48,32.884z M48,80.204c-12.495,0-22.66-10.165-22.66-22.66c0-12.495,10.166-22.66,22.66-22.66   c12.496,0,22.661,10.166,22.661,22.66C70.661,70.039,60.496,80.204,48,80.204z"/></g><text x="0" y="111" fill="#000000" font-size="5px" font-weight="bold" font-family="'Helvetica Neue', Helvetica, Arial-Unicode, Arial, Sans-serif">Created by balyanbinmalkan</text><text x="0" y="116" fill="#000000" font-size="5px" font-weight="bold" font-family="'Helvetica Neue', Helvetica, Arial-Unicode, Arial, Sans-serif">from the Noun Project</text></svg>